<?xml version="1.0" encoding="UTF-8" standalone="no"?>
<!-- Created with Inkscape (http://www.inkscape.org/) -->

<svg
   width="975"
   height="975"
   viewBox="0 0 257.96873 257.96873"
   version="1.1"
   id="svg5"
   xml:space="preserve"
   xmlns:inkscape="http://www.inkscape.org/namespaces/inkscape"
   xmlns:sodipodi="http://sodipodi.sourceforge.net/DTD/sodipodi-0.dtd"
   xmlns="http://www.w3.org/2000/svg"
   xmlns:svg="http://www.w3.org/2000/svg"><sodipodi:namedview
     id="namedview7"
     pagecolor="#ffffff"
     bordercolor="#000000"
     borderopacity="0.25"
     inkscape:showpageshadow="false"
     inkscape:pageopacity="0.0"
     inkscape:pagecheckerboard="0"
     inkscape:deskcolor="#d1d1d1"
     inkscape:document-units="mm"
     showgrid="false"
     showborder="false" /><defs
     id="defs2" /><g
     inkscape:label="Capa 1"
     inkscape:groupmode="layer"
     id="layer1"><g
       id="g2159"
       inkscape:label="Icon"
       transform="matrix(1.0001212,0,0,1.0001212,3.9692308,3.9692308)"
       inkscape:export-filename="favicon.svg"
       inkscape:export-xdpi="96"
       inkscape:export-ydpi="96"><circle
         style="fill:#a3d3e9;fill-opacity:1;stroke:#2f5470;stroke-width:7.9375;stroke-dasharray:none;stroke-opacity:1"
         id="path912"
         cx="125"
         cy="125"
         r="125" /><path
         style="fill:#ffffff;fill-opacity:1;stroke-width:0.264583"
         d="m 54.100937,151.77974 c -3.91196,-0.47862 -5.97286,-1.2636 -8.6222,-3.28415 -3.51083,-2.67759 -5.63501,-6.5407 -6.57089,-11.95006 -0.33557,-1.93963 -0.41155,-5.17648 -0.42641,-18.16655 -0.0205,-17.91049 -0.11199,-17.09488 2.07357,-18.480928 1.50132,-0.95211 3.63863,-1.39384 5.99816,-1.23968 2.22076,0.1451 3.7127,0.83181 4.88395,2.247968 1.57592,1.90548 1.60549,2.22403 1.60549,17.29839 0,11.68105 0.0622,13.93464 0.4238,15.36396 0.92608,3.66012 3.30867,5.49832 7.41657,5.722 3.23907,0.17636 5.6838,-0.74087 7.92205,-2.97224 2.12721,-2.1207 2.05718,-1.53129 2.21841,-18.66953 0.12889,-13.70026 0.18824,-15.29594 0.59664,-16.04192 1.17793,-2.151558 3.58426,-3.111278 7.43867,-2.966768 2.87785,0.1079 4.1118,0.63317 5.38322,2.291558 1.31051,1.70938 1.50437,3.21847 1.31478,10.23483 -0.0904,3.34698 -0.16578,13.06273 -0.16741,21.59056 l -0.003,15.50514 -0.59532,0.88096 c -0.32742,0.48452 -1.18984,1.17701 -1.9165,1.53887 -1.09885,0.5472 -1.72221,0.66133 -3.70417,0.6782 -2.03421,0.0173 -2.57,-0.0751 -3.66085,-0.63115 -0.70283,-0.35828 -1.67279,-1.08853 -2.15546,-1.62279 -0.83754,-0.92706 -1.72604,-3.21496 -1.72604,-4.44457 0,-0.6986 -0.43961,-0.72439 -0.65729,-0.0386 -0.0901,0.28382 -1.02083,1.38769 -2.06835,2.45306 -2.04198,2.07679 -4.44055,3.52273 -7.06394,4.25839 -1.81019,0.50762 -5.66115,0.72353 -7.9375,0.44502 z m 97.234373,-0.006 c -4.2077,-0.54036 -8.64904,-2.18932 -11.96882,-4.44374 -2.34544,-1.59276 -5.82327,-5.4121 -7.28438,-7.99967 -2.45225,-4.34288 -3.83451,-10.4863 -3.51385,-15.61725 0.20455,-3.27307 0.68371,-6.27594 1.19979,-7.51897 0.12083,-0.29104 0.5391,-1.3626 0.92949,-2.38124 1.9217,-5.01437 6.65289,-10.26992 11.37735,-12.6383 5.69081,-2.852808 13.03374,-3.813048 19.39445,-2.536208 3.44898,0.69234 5.81205,1.777668 7.51044,3.449448 1.57836,1.55363 1.80479,2.12588 1.79343,4.53238 -0.012,2.54636 -1.03209,4.6639 -2.76161,5.73281 -0.93145,0.57566 -3.70183,0.75217 -4.57519,0.29148 -4.28731,-2.26147 -10.04656,-2.49269 -13.80502,-0.55423 -4.85206,2.50248 -7.28996,9.2405 -5.97855,16.52391 1.06932,5.93888 4.38996,9.5685 9.58548,10.47739 2.51234,0.43951 6.1296,-0.0223 8.43077,-1.0762 3.48183,-1.59471 5.28023,-1.66215 7.20196,-0.27006 1.64809,1.19388 2.24826,2.39958 2.38694,4.79528 0.10061,1.73802 0.0283,2.24549 -0.46508,3.26472 -1.70418,3.52037 -7.05789,5.81815 -14.16539,6.0797 -1.89207,0.0696 -4.27356,0.0196 -5.29221,-0.11125 z M 96.973547,129.89718 c -1.22407,-0.41821 -2.80311,-2.12461 -3.16195,-3.41698 -0.79964,-2.87989 0.0436,-5.72802 2.14696,-7.25169 l 1.08427,-0.78544 h 10.923293 c 6.16088,0 11.20789,0.1082 11.57608,0.24818 0.94862,0.36067 2.20547,1.67821 2.67664,2.80589 0.67494,1.61536 0.54322,4.51055 -0.28042,6.16337 -1.21402,2.43621 -0.95773,2.38865 -13.35625,2.47886 -7.83069,0.057 -10.921743,-0.008 -11.608623,-0.24219 z m 83.765503,-0.81416 c -0.0901,-0.14573 0.12806,-0.9027 0.48474,-1.68215 0.45082,-0.9852 0.66975,-1.98172 0.71826,-3.26926 0.0647,-1.7169 0.0151,-1.91002 -0.67983,-2.64584 -1.11169,-1.17717 -2.22657,-2.86838 -3.01426,-4.57243 -0.61257,-1.32523 -0.70057,-1.85774 -0.70913,-4.29111 -0.007,-2.11161 0.11123,-3.09551 0.49458,-4.10104 1.63237,-4.28171 5.27643,-7.54698 10.37024,-9.292308 2.68427,-0.91972 7.39267,-1.1633 10.35554,-0.53572 2.83597,0.6007 6.19607,2.298778 8.28762,4.188288 1.11979,1.01163 2.82385,3.43893 3.59373,5.11901 0.95603,2.08632 1.16027,5.22705 0.49881,7.67066 -0.97128,3.58821 -4.29154,7.24938 -8.34259,9.19918 -3.16715,1.52437 -7.96971,2.11628 -11.71945,1.44439 l -2.06217,-0.3695 -1.00226,0.73707 c -1.93732,1.42472 -6.87072,3.05301 -7.27383,2.40076 z m 7.82685,-15.42187 c 1.30234,-1.75218 -1.34392,-3.96304 -2.97582,-2.48619 -0.7226,0.65394 -0.68604,2.06609 0.0718,2.7721 0.81909,0.7631 2.2274,0.62445 2.90405,-0.28591 z m 7.3378,0.1665 c 1.3532,-1.44042 -0.28206,-3.81166 -2.10724,-3.05565 -1.06705,0.44199 -1.47842,1.56716 -0.94798,2.59291 0.66926,1.2942 2.07419,1.50699 3.05522,0.46274 z m 7.42223,0.1175 c 0.81572,-0.81572 0.70828,-2.21768 -0.22063,-2.87912 -1.30136,-0.92665 -2.95437,-0.10701 -2.95437,1.46492 0,1.1128 0.79156,1.94337 1.85208,1.94337 0.44098,0 1.02894,-0.23519 1.32292,-0.52917 z"
         id="path858" /></g></g></svg>
